#!OML:ASF G:\JayActor3\Patient Classification 1\Patient 1\Session 6\male.ASF
:FULLY-SPECIFIED
:DEGREES
4160
root -0.358444 16.2121 -7.32709 -170.516 -46.0049 178.586
lowerback 22.3797 -1.50866 4.60817
upperback 4.40446 -1.24604 8.49657
thorax -7.52592 -1.06525 7.1775
lowerneck 0.981547 9.24605 13.2484
upperneck -18.3369 10.6302 -14.4718
head -3.97719 4.86682 -6.94466
rclavicle 4.45278e-014 5.08889e-014
rhumerus -32.9374 11.7659 -84.5177
rradius 128.492
rwrist 13.0859
rhand 9.39059 -20.3998
rfingers 7.12502
rthumb 34.5481 -47.0602
lclavicle 4.45278e-014 5.08889e-014
lhumerus -32.3092 -21.6316 87.7667
lradius 127.967
lwrist 9.16131
lhand 1.07937 37.1515
lfingers 7.12502
lthumb 26.6238 65.2996
rfemur -35.2126 -7.18645 12.1134
rtibia 43.733
rfoot -17.0367 -11.7616
rtoes 13.7157
lfemur -28.1933 40.9462 -25.5557
ltibia 37.141
lfoot -18.7268 21.5011
ltoes 1.42721
4161
root -0.348924 16.2039 -7.30486 -170.454 -45.8652 178.724
lowerback 22.5761 -1.49582 4.58412
upperback 4.53885 -1.24994 8.493
thorax -7.47833 -1.07654 7.19425
lowerneck 0.906731 9.28164 13.3074
upperneck -18.2803 10.654 -14.6766
head -3.92455 4.88653 -7.01014
rclavicle 1.59028e-014 4.29375e-014
rhumerus -32.8833 11.7769 -84.4967
rradius 128.479
rwrist 13.0812
rhand 9.39599 -20.4277
rfingers 7.12502
rthumb 34.5532 -47.0869
lclavicle 1.59028e-014 4.29375e-014
lhumerus -32.1676 -21.7113 87.7352
lradius 127.952
lwrist 9.18585
lhand 1.1022 37.1744
lfingers 7.12502
lthumb 26.6457 65.3191
rfemur -35.5748 -7.22615 12.229
rtibia 43.8092
rfoot -16.8857 -11.6497
rtoes 13.6227
lfemur -28.7694 41.1619 -25.7571
ltibia 37.5009
lfoot -18.8183 21.4349
ltoes 1.39507
4162
root -0.339676 16.1953 -7.28223 -170.402 -45.7186 178.868
lowerback 22.7779 -1.48111 4.56519
upperback 4.67284 -1.25029 8.48642
thorax -7.43406 -1.08639 7.20401
lowerneck 0.824317 9.30856 13.3693
upperneck -18.2197 10.6656 -14.8785
head -3.87114 4.89955 -7.07488
rclavicle 5.88403e-014 -1.27222e-014
rhumerus -32.8315 11.7812 -84.4797
rradius 128.471
rwrist 13.0684
rhand 9.37067 -20.4263
rfingers 7.12502
rthumb 34.5292 -47.091
lclavicle 5.88403e-014 -1.27222e-014
lhumerus -32.0211 -21.8064 87.7112
lradius 127.937
lwrist 9.21167
lhand 1.12497 37.2016
lfingers 7.12502
lthumb 26.6674 65.343
rfemur -35.9333 -7.24499 12.3442
rtibia 43.8845
rfoot -16.7359 -11.5477
rtoes 13.5253
lfemur -29.3451 41.3698 -25.9534
ltibia 37.8715
lfoot -18.9228 21.3802
ltoes 1.38108
4163
root -0.330674 16.1864 -7.25933 -170.359 -45.5673 179.021
lowerback 22.982 -1.46472 4.55512
upperback 4.80349 -1.24613 8.47875
thorax -7.39497 -1.09428 7.20651
lowerneck 0.744506 9.32514 13.428
upperneck -18.1585 10.6637 -15.0775
head -3.82027 4.90601 -7.13873
rclavicle 9.70069e-014 -6.20208e-014
rhumerus -32.7929 11.7794 -84.4656
rradius 128.473
rwrist 13.0531
rhand 9.32237 -20.4327
rfingers 7.12502
rthumb 34.4834 -47.1079
lclavicle 9.70069e-014 -6.20208e-014
lhumerus -31.8739 -21.9153 87.6989
lradius 127.92
lwrist 9.23461
lhand 1.15018 37.228
lfingers 7.12502
lthumb 26.6916 65.3658
rfemur -36.2921 -7.24217 12.4622
rtibia 43.9624
rfoot -16.5841 -11.4624
rtoes 13.4043
lfemur -29.9205 41.5621 -26.1413
ltibia 38.2508
lfoot -19.0385 21.3438
ltoes 1.37794
4164
root -0.321841 16.1771 -7.23607 -170.326 -45.4075 179.184
lowerback 23.1903 -1.44499 4.55435
upperback 4.92863 -1.23452 8.47078
thorax -7.36463 -1.09867 7.20178
lowerneck 0.660431 9.3277 13.5178
upperneck -18.0829 10.641 -15.3138
head -3.76254 4.90278 -7.21893
rclavicle -2.22639e-014 3.81667e-014
rhumerus -32.7703 11.7695 -84.452
rradius 128.482
rwrist 13.0384
rhand 9.25992 -20.4372
rfingers 7.12502
rthumb 34.4241 -47.1258
lclavicle -2.22639e-014 3.81667e-014
lhumerus -31.7312 -22.0371 87.7045
lradius 127.902
lwrist 9.25329
lhand 1.16255 37.2516
lfingers 7.12502
lthumb 26.7034 65.3876
rfemur -36.6549 -7.22177 12.5846
rtibia 44.0456
rfoot -16.4272 -11.3858
rtoes 13.2777
lfemur -30.4967 41.7427 -26.3213
ltibia 38.6389
lfoot -19.1633 21.3272
ltoes 1.38205
4165
root -0.312951 16.1674 -7.21246 -170.292 -45.2391 179.344
lowerback 23.4022 -1.42131 4.5513
upperback 5.04726 -1.21694 8.46202
thorax -7.34357 -1.0998 7.19636
lowerneck 0.586897 9.32434 13.6015
upperneck -18.013 10.6102 -15.5549
head -3.7094 4.89639 -7.30095
rclavicle 4.45278e-014 -1.11319e-014
rhumerus -32.7602 11.7521 -84.4386
rradius 128.497
rwrist 13.0314
rhand 9.19643 -20.4351
rfingers 7.12502
rthumb 34.3638 -47.1373
lclavicle 4.45278e-014 -1.11319e-014
lhumerus -31.5941 -22.1653 87.7288
lradius 127.885
lwrist 9.2678
lhand 1.16507 37.2697
lfingers 7.12502
lthumb 26.7058 65.4053
rfemur -37.027 -7.18098 12.7014
rtibia 44.1371
rfoot -16.2658 -11.322
rtoes 13.1519
lfemur -31.0767 41.9073 -26.5037
ltibia 39.0346
lfoot -19.2986 21.3292
ltoes 1.40508
4166
root -0.304206 16.1574 -7.18853 -170.256 -45.0717 179.503
lowerback 23.6163 -1.39889 4.55161
upperback 5.16052 -1.19928 8.45214
thorax -7.32935 -1.10074 7.18815
lowerneck 0.523418 9.32308 13.665
upperneck -17.9575 10.5822 -15.7866
head -3.66378 4.89172 -7.37822
rclavicle -5.725e-014 3.97569e-014
rhumerus -32.7574 11.7328 -84.4285
rradius 128.518
rwrist 13.032
rhand 9.13173 -20.4307
rfingers 7.12502
rthumb 34.3024 -47.1468
lclavicle -5.725e-014 3.97569e-014
lhumerus -31.4604 -22.2954 87.7682
lradius 127.868
lwrist 9.28215
lhand 1.15289 37.2779
lfingers 7.12502
lthumb 26.6942 65.4153
rfemur -37.4054 -7.1319 12.8143
rtibia 44.2383
rfoot -16.1032 -11.2676
rtoes 13.028
lfemur -31.6597 42.0525 -26.6865
ltibia 39.4372
lfoot -19.4386 21.3449
ltoes 1.43249
4167
root -0.295335 16.147 -7.16425 -170.209 -44.902 179.652
lowerback 23.8307 -1.37726 4.54571
upperback 5.27145 -1.18384 8.43931
thorax -7.31734 -1.10247 7.18092
lowerneck 0.47404 9.33225 13.6859
upperneck -17.9314 10.5685 -15.9885
head -3.63199 4.89412 -7.44123
rclavicle -5.24792e-014 1.59028e-015
rhumerus -32.754 11.7181 -84.4223
rradius 128.546
rwrist 13.0452
rhand 9.07107 -20.4184
rfingers 7.12502
rthumb 34.2448 -47.1475
lclavicle -5.24792e-014 1.59028e-015
lhumerus -31.3223 -22.4192 87.8124
lradius 127.853
lwrist 9.2962
lhand 1.13128 37.2778
lfingers 7.12502
lthumb 26.6735 65.4183
rfemur -37.7962 -7.07072 12.9168
rtibia 44.3516
rfoot -15.9418 -11.2225
rtoes 12.917
lfemur -32.252 42.1854 -26.8812
ltibia 39.8441
lfoot -19.5773 21.3727
ltoes 1.45923
4168
root -0.286478 16.1362 -7.13963 -170.155 -44.7386 179.798
lowerback 24.0451 -1.36283 4.54063
upperback 5.38014 -1.17759 8.42434
thorax -7.30665 -1.10858 7.17362
lowerneck 0.428938 9.35535 13.6662
upperneck -17.9297 10.5731 -16.1573
head -3.61038 4.9051 -7.48826
rclavicle -9.38264e-014 -7.95139e-015
rhumerus -32.7393 11.7172 -84.4244
rradius 128.574
rwrist 13.0627
rhand 9.01454 -20.4001
rfingers 7.12502
rthumb 34.1911 -47.1413
lclavicle -9.38264e-014 -7.95139e-015
lhumerus -31.179 -22.5322 87.853
lradius 127.84
lwrist 9.31054
lhand 1.09293 37.267
lfingers 7.12502
lthumb 26.6368 65.4131
rfemur -38.1968 -7.00246 13.0146
rtibia 44.4761
rfoot -15.7876 -11.1877
rtoes 12.8141
lfemur -32.8545 42.3056 -27.083
ltibia 40.2537
lfoot -19.7128 21.405
ltoes 1.48394
4169
root -0.2777 16.1251 -7.11469 -170.084 -44.5791 179.929
lowerback 24.2542 -1.35596 4.52782
upperback 5.48855 -1.1836 8.4026
thorax -7.29224 -1.12025 7.16629
lowerneck 0.381407 9.39375 13.621
upperneck -17.9432 10.5976 -16.3053
head -3.59304 4.92525 -7.52458
rclavicle -5.725e-014 1.90833e-014
rhumerus -32.7135 11.7364 -84.4382
rradius 128.603
rwrist 13.0781
rhand 8.95017 -20.3896
rfingers 7.12502
rthumb 34.1299 -47.1445
lclavicle -5.725e-014 1.90833e-014
lhumerus -31.0268 -22.633 87.8816
lradius 127.827
lwrist 9.32271
lhand 1.04638 37.2441
lfingers 7.12502
lthumb 26.5922 65.3969
rfemur -38.6092 -6.92785 13.0975
rtibia 44.6112
rfoot -15.6394 -11.1654
rtoes 12.7021
lfemur -33.4686 42.4159 -27.3049
ltibia 40.6645
lfoot -19.8453 21.4431
ltoes 1.49498
4170
root -0.269052 16.1136 -7.08933 -169.995 -44.4138 180.04
lowerback 24.4647 -1.35341 4.50094
upperback 5.59575 -1.19842 8.37275
thorax -7.27875 -1.13559 7.16067
lowerneck 0.323198 9.44268 13.5744
upperneck -17.9572 10.635 -16.4513
head -3.57231 4.95096 -7.55898
rclavicle 1.11319e-014 3.97569e-014
rhumerus -32.6743 11.775 -84.466
rradius 128.627
rwrist 13.0924
rhand 8.8847 -20.3766
rfingers 7.12502
rthumb 34.0678 -47.1453
lclavicle 1.11319e-014 3.97569e-014
lhumerus -30.8683 -22.7237 87.8948
lradius 127.815
lwrist 9.3296
lhand 1.00191 37.213
lfingers 7.12502
lthumb 26.5497 65.3723
rfemur -39.0303 -6.8414 13.1607
rtibia 44.7531
rfoot -15.5001 -11.1474
rtoes 12.6046
lfemur -34.09 42.5275 -27.5497
ltibia 41.076
lfoot -19.979 21.483
ltoes 1.49652
